<?xml version="1.0" standalone="no"?>
<!DOCTYPE svg PUBLIC "-//W3C//DTD SVG 20010904//EN"
 "http://www.w3.org/TR/2001/REC-SVG-20010904/DTD/svg10.dtd">
<svg version="1.0" xmlns="http://www.w3.org/2000/svg"
 width="1000.000000pt" height="1000.000000pt" viewBox="0 0 1000.000000 1000.000000"
 preserveAspectRatio="xMidYMid meet">
<metadata>
Created by potrace 1.11, written by Peter Selinger 2001-2013
</metadata>
<g transform="translate(0.000000,1000.000000) scale(0.100000,-0.100000)"
fill="#000000" stroke="none">
<path d="M0 5000 l0 -5000 5000 0 5000 0 0 5000 0 5000 -5000 0 -5000 0 0
-5000z m6818 1748 l2 -538 800 0 800 0 0 -280 0 -280 -800 0 -801 0 4 -882 c4
-950 2 -915 56 -1071 63 -182 204 -316 391 -371 263 -79 668 -55 1027 60 63
20 115 35 117 33 10 -11 137 -492 133 -503 -6 -15 -267 -94 -432 -131 -401
-90 -843 -94 -1152 -10 -411 112 -674 384 -783 810 -58 225 -60 275 -60 1211
l0 854 -470 0 -470 0 0 260 c0 143 1 260 3 260 1 1 215 9 476 19 308 12 476
22 480 29 4 6 26 247 50 534 24 288 45 526 48 531 2 4 133 6 291 5 l287 -3 3
-537z m-3206 -473 c348 -46 637 -169 903 -386 39 -31 77 -64 84 -73 12 -14 -7
-43 -150 -232 -89 -118 -165 -217 -168 -219 -3 -1 -51 30 -106 71 -55 40 -152
100 -215 133 -206 106 -361 144 -580 144 -371 -1 -672 -121 -901 -361 -215
-225 -319 -504 -319 -855 0 -226 38 -395 130 -582 113 -231 280 -396 511 -504
291 -137 672 -158 986 -55 174 57 352 151 509 270 48 36 88 63 89 62 13 -17
287 -433 291 -442 12 -31 -265 -221 -471 -321 -386 -189 -748 -246 -1209 -189
-680 84 -1206 471 -1431 1054 -125 321 -157 746 -84 1105 152 752 761 1279
1596 1380 150 18 399 18 535 0z"/>
</g>
</svg>
